<svg width="20" height="28" viewBox="0 0 20 28" fill="none" xmlns="http://www.w3.org/2000/svg">
<path d="M4.55078 27.7477V9.19761H0.463867V27.7477H4.55078ZM2.48535 6.71599C3.80371 6.71599 4.8584 5.16497 4.8584 3.30377C4.8584 1.5046 3.80371 0.015625 2.48535 0.015625C1.21094 0.015625 0.15625 1.5046 0.15625 3.30377C0.15625 5.16497 1.21094 6.71599 2.48535 6.71599ZM19.7997 27.7477H19.8438V17.5731C19.8438 12.6098 19.0527 8.76333 14.9219 8.76333C12.9444 8.76333 11.626 10.3143 11.0547 11.7413H11.0107V9.19761H7.09961V27.7477H11.1865V18.5657C11.1865 16.1461 11.4941 13.8506 13.6035 13.8506C15.7129 13.8506 15.7569 16.5804 15.7569 18.7519V27.7477H19.7997Z" fill="#292F36"/>
</svg>
