<svg width="30" height="29" viewBox="0 0 30 29" fill="none" xmlns="http://www.w3.org/2000/svg">
<path d="M15.0002 7.16374C10.809 7.16374 7.46918 10.3799 7.46918 14.2764C7.46918 18.2347 10.809 21.389 15.0002 21.389C19.1259 21.389 22.5313 18.2347 22.5313 14.2764C22.5313 10.3799 19.1259 7.16374 15.0002 7.16374ZM15.0002 18.915C12.3152 18.915 10.0887 16.874 10.0887 14.2764C10.0887 11.7406 12.2497 9.69955 15.0002 9.69955C17.6852 9.69955 19.8463 11.7406 19.8463 14.2764C19.8463 16.874 17.6852 18.915 15.0002 18.915ZM24.5614 6.91634C24.5614 5.9886 23.7756 5.24642 22.7931 5.24642C21.8109 5.24642 21.0251 5.9886 21.0251 6.91634C21.0251 7.84407 21.8109 8.58627 22.7931 8.58627C23.7756 8.58627 24.5614 7.84407 24.5614 6.91634ZM29.5384 8.58627C29.4074 6.3597 28.8835 4.38054 27.1807 2.77247C25.4781 1.16439 23.3826 0.669597 21.0251 0.545899C18.602 0.4222 11.3329 0.4222 8.9099 0.545899C6.55236 0.669597 4.52226 1.16439 2.75411 2.77247C1.05144 4.38054 0.527544 6.3597 0.39657 8.58627C0.265597 10.8747 0.265597 17.7398 0.39657 20.0283C0.527544 22.2548 1.05144 24.1722 2.75411 25.8422C4.52226 27.4502 6.55236 27.945 8.9099 28.0687C11.3329 28.1923 18.602 28.1923 21.0251 28.0687C23.3826 27.945 25.4781 27.4502 27.1807 25.8422C28.8835 24.1722 29.4074 22.2548 29.5384 20.0283C29.6693 17.7398 29.6693 10.8747 29.5384 8.58627ZM26.3949 22.4405C25.9366 23.6773 24.8887 24.6052 23.6444 25.1C21.68 25.8422 17.0958 25.6565 15.0002 25.6565C12.8391 25.6565 8.25502 25.8422 6.3559 25.1C5.04617 24.6052 4.06384 23.6773 3.53995 22.4405C2.75411 20.6468 2.95058 16.3173 2.95058 14.2764C2.95058 12.2972 2.75411 7.96777 3.53995 6.1123C4.06384 4.93717 5.04617 4.00944 6.3559 3.51465C8.25502 2.77247 12.8391 2.958 15.0002 2.958C17.0958 2.958 21.68 2.77247 23.6444 3.51465C24.8887 3.94759 25.8711 4.93717 26.3949 6.1123C27.1807 7.96777 26.9843 12.2972 26.9843 14.2764C26.9843 16.3173 27.1807 20.6468 26.3949 22.4405Z" fill="#292F36"/>
</svg>
