<svg width="25" height="31" viewBox="0 0 25 31" fill="none" xmlns="http://www.w3.org/2000/svg">
<path d="M24.9511 9.80724C26.0383 8.45183 27.0169 6.8253 27.7778 4.92771C26.7993 5.65061 25.6579 6.19278 24.5163 6.3735C25.7122 5.1988 26.5819 3.39158 27.0169 1.13253C25.9296 2.21687 24.6793 3.03012 23.429 3.48193C22.3418 1.58434 20.8742 0.5 19.2433 0.5C16.0904 0.5 13.5356 4.747 13.5356 9.98796C13.5356 10.7109 13.5899 11.4337 13.6987 12.1566C8.96936 11.7048 4.72929 7.90965 1.90259 2.21687C1.41335 3.5723 1.14155 5.1988 1.14155 7.00605C1.14155 10.259 2.12003 13.1506 3.69646 14.8675C2.77235 14.7771 1.84823 14.4157 1.0872 13.6928V13.7831C1.0872 18.3916 3.04415 22.1868 5.65342 23.0904C5.21854 23.2711 4.67494 23.4518 4.1857 23.4518C3.80519 23.4518 3.47903 23.3615 3.09851 23.2711C3.80519 27.0663 5.92521 29.7771 8.42577 29.8676C6.46881 32.3975 4.02262 33.9338 1.35899 33.9338C0.869756 33.9338 0.434878 33.8433 0 33.7531C2.50055 36.464 5.49034 38 8.75193 38C19.2433 38 24.9511 23.6326 24.9511 11.0723C24.9511 10.6205 24.9511 10.259 24.9511 9.80724Z" fill="#292F36"/>
</svg>
