<svg width="209" height="70" viewBox="0 0 209 70" fill="none" xmlns="http://www.w3.org/2000/svg">
<rect width="209" height="70" rx="35" fill="#486958"/>
<path d="M100.032 48.13C99.3907 48.13 98.9313 47.9913 98.654 47.714C98.3767 47.4193 98.238 46.8733 98.238 46.076C98.238 45.5387 98.29 44.854 98.394 44.022C98.5153 43.1727 98.706 42.0113 98.966 40.538C99.4167 37.8167 99.772 35.4593 100.032 33.466C100.188 32.218 100.266 31.178 100.266 30.346C100.266 29.566 99.98 29.176 99.408 29.176C98.9573 29.176 98.4113 29.41 97.77 29.878C97.146 30.3287 96.4527 31.0567 95.69 32.062C95.4473 32.3913 95.1787 32.556 94.884 32.556C94.6413 32.556 94.4247 32.4433 94.234 32.218C94.0607 31.9753 93.974 31.7067 93.974 31.412C93.974 31.1347 94.026 30.8573 94.13 30.58C94.2513 30.2853 94.442 29.956 94.702 29.592C95.534 28.4307 96.4613 27.538 97.484 26.914C98.5067 26.2727 99.5293 25.952 100.552 25.952C101.505 25.952 102.233 26.2553 102.736 26.862C103.256 27.4687 103.516 28.3527 103.516 29.514C103.516 29.982 103.473 30.5367 103.386 31.178C103.299 31.802 103.221 32.3133 103.152 32.712C103.083 33.1107 103.031 33.388 102.996 33.544C103.984 30.7187 105.093 28.7513 106.324 27.642C107.555 26.5153 108.907 25.952 110.38 25.952C111.507 25.952 112.391 26.3507 113.032 27.148C113.691 27.9453 114.02 29.072 114.02 30.528C114.02 31.1 113.942 31.8107 113.786 32.66C114.653 30.268 115.667 28.552 116.828 27.512C117.989 26.472 119.324 25.952 120.832 25.952C122.045 25.952 122.973 26.342 123.614 27.122C124.273 27.902 124.602 28.994 124.602 30.398C124.602 31.1607 124.489 32.088 124.264 33.18L122.678 40.616C122.505 41.4827 122.418 42.228 122.418 42.852C122.418 43.58 122.583 44.126 122.912 44.49C123.259 44.854 123.735 45.036 124.342 45.036C124.914 45.036 125.469 44.8453 126.006 44.464C126.561 44.0827 127.211 43.45 127.956 42.566C128.164 42.3233 128.398 42.202 128.658 42.202C128.883 42.202 129.057 42.306 129.178 42.514C129.317 42.722 129.386 43.008 129.386 43.372C129.386 44.048 129.221 44.5853 128.892 44.984C127.991 46.076 127.098 46.8733 126.214 47.376C125.33 47.8787 124.403 48.13 123.432 48.13C121.959 48.13 120.806 47.6967 119.974 46.83C119.142 45.946 118.726 44.7673 118.726 43.294C118.726 42.2713 118.934 40.7893 119.35 38.848L120.39 34.09C120.425 33.934 120.485 33.6567 120.572 33.258C120.659 32.8593 120.728 32.4867 120.78 32.14C120.832 31.776 120.858 31.4207 120.858 31.074C120.858 30.4673 120.737 30.0167 120.494 29.722C120.269 29.41 119.939 29.254 119.506 29.254C118.691 29.254 117.833 29.7827 116.932 30.84C116.048 31.88 115.199 33.6133 114.384 36.04C113.587 38.4667 112.937 41.6213 112.434 45.504C112.313 46.544 112.096 47.246 111.784 47.61C111.489 47.9567 111.004 48.13 110.328 48.13C109.739 48.13 109.305 47.9913 109.028 47.714C108.768 47.4367 108.638 46.9167 108.638 46.154C108.638 45.4433 108.733 44.516 108.924 43.372C109.115 42.2107 109.357 40.85 109.652 39.29C110.449 35.0953 110.848 32.3913 110.848 31.178C110.848 30.5193 110.718 30.034 110.458 29.722C110.215 29.41 109.843 29.254 109.34 29.254C108.491 29.254 107.615 29.7393 106.714 30.71C105.813 31.6633 104.929 33.3707 104.062 35.832C103.213 38.276 102.502 41.5867 101.93 45.764C101.809 46.648 101.627 47.2633 101.384 47.61C101.159 47.9567 100.708 48.13 100.032 48.13ZM147.051 40.096C145.942 41.7947 144.598 43.294 143.021 44.594L145.283 47.09C145.682 47.506 145.881 47.9393 145.881 48.39C145.881 48.8233 145.708 49.1787 145.361 49.456C145.014 49.7507 144.555 49.898 143.983 49.898C143.186 49.898 142.579 49.6553 142.163 49.17L139.979 46.596C137.934 47.6187 135.975 48.13 134.103 48.13C132.716 48.13 131.503 47.9133 130.463 47.48C129.423 47.0467 128.617 46.4487 128.045 45.686C127.49 44.9233 127.213 44.074 127.213 43.138C127.213 41.8727 127.603 40.694 128.383 39.602C129.18 38.4927 130.472 37.4007 132.257 36.326C131.252 34.4887 130.749 32.868 130.749 31.464C130.749 30.216 131.009 29.1153 131.529 28.162C132.049 27.2087 132.768 26.472 133.687 25.952C134.623 25.432 135.689 25.172 136.885 25.172C138.41 25.172 139.589 25.614 140.421 26.498C141.27 27.3647 141.695 28.5607 141.695 30.086C141.695 31.3513 141.322 32.5473 140.577 33.674C139.849 34.7833 138.549 35.9187 136.677 37.08C137.786 38.588 139.251 40.3647 141.071 42.41C142.215 41.3873 143.35 40.096 144.477 38.536C144.668 38.2587 144.893 38.068 145.153 37.964C145.413 37.8427 145.734 37.782 146.115 37.782C147.12 37.782 147.623 38.068 147.623 38.64C147.623 39.004 147.432 39.4893 147.051 40.096ZM136.703 27.902C135.888 27.902 135.247 28.214 134.779 28.838C134.311 29.4447 134.077 30.2073 134.077 31.126C134.077 32.218 134.441 33.414 135.169 34.714C136.521 33.9167 137.44 33.1453 137.925 32.4C138.41 31.6547 138.653 30.84 138.653 29.956C138.653 29.3147 138.488 28.812 138.159 28.448C137.83 28.084 137.344 27.902 136.703 27.902ZM134.259 45.27C135.611 45.27 136.902 44.9753 138.133 44.386C136.296 42.1847 134.848 40.304 133.791 38.744C131.832 40.0267 130.853 41.3613 130.853 42.748C130.853 43.5453 131.156 44.1693 131.763 44.62C132.37 45.0533 133.202 45.27 134.259 45.27ZM175.146 42.202C175.372 42.202 175.545 42.306 175.666 42.514C175.805 42.722 175.874 43.008 175.874 43.372C175.874 44.048 175.71 44.5853 175.38 44.984C174.548 45.9893 173.708 46.7693 172.858 47.324C172.009 47.8613 171.004 48.13 169.842 48.13C168.56 48.13 167.511 47.7573 166.696 47.012C165.882 46.2493 165.119 45.0707 164.408 43.476C163.888 42.332 163.455 41.4827 163.108 40.928C162.779 40.356 162.45 39.9573 162.12 39.732C161.791 39.4893 161.375 39.342 160.872 39.29L160.586 41.214C160.222 43.6927 159.512 45.478 158.454 46.57C157.414 47.662 155.976 48.208 154.138 48.208C152.942 48.208 151.876 47.922 150.94 47.35C150.022 46.7607 149.38 46.0153 149.016 45.114C148.895 44.802 148.834 44.464 148.834 44.1C148.834 43.58 148.956 43.1293 149.198 42.748C149.441 42.3667 149.753 42.176 150.134 42.176C150.36 42.176 150.55 42.2367 150.706 42.358C150.862 42.462 151.01 42.6527 151.148 42.93C151.686 43.9353 152.154 44.6373 152.552 45.036C152.968 45.4347 153.48 45.634 154.086 45.634C154.78 45.634 155.369 45.322 155.854 44.698C156.357 44.0567 156.712 43.0773 156.92 41.76L157.284 39.29H156.868C156.47 39.29 156.158 39.1773 155.932 38.952C155.707 38.7267 155.594 38.4147 155.594 38.016C155.594 37.5653 155.707 37.21 155.932 36.95C156.175 36.6727 156.47 36.534 156.816 36.534H157.674C157.796 35.6847 157.882 35.0953 157.934 34.766L158.74 28.916C158.29 28.864 157.865 28.838 157.466 28.838C155.993 28.838 154.875 29.098 154.112 29.618C153.35 30.1207 152.968 30.8487 152.968 31.802C152.968 32.2353 153.012 32.5907 153.098 32.868C153.202 33.128 153.332 33.4227 153.488 33.752C153.558 33.8907 153.592 34.0467 153.592 34.22C153.592 34.6013 153.41 34.9393 153.046 35.234C152.7 35.5113 152.31 35.65 151.876 35.65C151.322 35.65 150.914 35.4073 150.654 34.922C150.134 34.0033 149.874 33.0153 149.874 31.958C149.874 30.866 150.169 29.8693 150.758 28.968C151.365 28.0667 152.275 27.3473 153.488 26.81C154.702 26.2553 156.201 25.978 157.986 25.978C158.766 25.978 159.477 26.0213 160.118 26.108C160.777 26.1947 161.496 26.3593 162.276 26.602C163.126 26.862 163.55 27.3473 163.55 28.058C163.55 29.0113 163.143 29.488 162.328 29.488L161.314 36.482C163.342 36.274 164.989 35.4073 166.254 33.882C167.537 32.3393 168.603 30.2507 169.452 27.616C169.608 27.1307 169.868 26.758 170.232 26.498C170.614 26.238 171.09 26.108 171.662 26.108C172.148 26.108 172.52 26.2207 172.78 26.446C173.058 26.654 173.196 26.9573 173.196 27.356C173.196 27.4773 173.162 27.6767 173.092 27.954C172.226 30.814 170.986 33.0847 169.374 34.766C167.762 36.4473 166.003 37.5653 164.096 38.12C164.755 38.276 165.292 38.51 165.708 38.822C166.142 39.134 166.506 39.524 166.8 39.992C167.095 40.4427 167.433 41.0753 167.814 41.89C168.352 43.034 168.854 43.8487 169.322 44.334C169.79 44.802 170.336 45.036 170.96 45.036C171.515 45.036 172.044 44.854 172.546 44.49C173.049 44.1087 173.682 43.4673 174.444 42.566C174.652 42.3233 174.886 42.202 175.146 42.202Z" fill="white"/>
<path fill-rule="evenodd" clip-rule="evenodd" d="M37.0283 18.2268C37.588 17.9235 38.2516 17.9238 38.8091 18.2314C40.5466 19.1898 44.5491 21.5056 48.2132 24.4098C48.5994 24.7159 48.5952 25.3104 48.2027 25.6078C46.755 26.7045 43.3478 29.1805 38.8721 31.7461C38.2819 32.0845 37.5679 32.0854 36.9793 31.744C35.1958 30.7096 31.2099 28.3238 27.8951 25.8101C27.3718 25.4133 27.3674 24.6218 27.8876 24.2207C29.5274 22.9562 32.9981 20.4106 37.0283 18.2268ZM37.0283 33.2268C37.588 32.9235 38.2516 32.9238 38.8091 33.2314C40.5466 34.1898 44.5491 36.5056 48.2132 39.4098C48.5994 39.7159 48.5952 40.3104 48.2027 40.6078C46.755 41.7045 43.3478 44.1805 38.8721 46.7461C38.2819 47.0845 37.5679 47.0854 36.9793 46.744C35.1958 45.7096 31.2099 43.3238 27.8951 40.8101C27.3718 40.4133 27.3674 39.6218 27.8876 39.2207C29.5274 37.9562 32.9981 35.4106 37.0283 33.2268ZM50.4226 44.2314C49.8428 43.9238 49.1528 43.9235 48.5707 44.2268C44.1485 46.5311 40.3741 49.2384 38.8007 50.4181C38.3966 50.7211 38.4009 51.3145 38.807 51.6147C42.3042 54.1995 46.6172 56.6828 48.5198 57.744C49.1319 58.0854 49.8743 58.0845 50.4881 57.7461C55.1423 55.1805 58.6854 52.7046 60.1908 51.6078C60.599 51.3104 60.6034 50.7159 60.2017 50.4098C56.3915 47.5056 52.2294 45.1898 50.4226 44.2314ZM60.646 18.2268C61.2324 17.9235 61.9276 17.9238 62.5117 18.2314C64.2901 19.1678 68.3338 21.3999 72.0987 24.2105C72.6409 24.6153 72.6321 25.4091 72.0816 25.8029C70.4367 26.9796 67.0066 29.3228 62.5777 31.7461C61.9593 32.0845 61.2113 32.0854 60.5947 31.744C58.6778 30.6828 54.3326 28.1995 50.8093 25.6147C50.4001 25.3145 50.3958 24.7211 50.8029 24.4181C52.3881 23.2384 56.1907 20.5311 60.646 18.2268ZM62.5117 33.2314C61.9276 32.9238 61.2324 32.9235 60.646 33.2268C56.1907 35.5311 52.3881 38.2384 50.8029 39.4181C50.3958 39.7211 50.4001 40.3145 50.8093 40.6147C54.3326 43.1995 58.6778 45.6828 60.5947 46.744C61.2113 47.0854 61.9593 47.0845 62.5777 46.7461C67.0066 44.3228 70.4367 41.9796 72.0816 40.8029C72.6321 40.4091 72.6409 39.6153 72.0987 39.2105C68.3338 36.3999 64.2901 34.1678 62.5117 33.2314Z" fill="white"/>
</svg>
